<mxfile host="app.diagrams.net" modified="2022-04-21T17:01:28.209Z" agent="5.0 (Windows NT 10.0; Win64; x64) AppleWebKit/537.36 (KHTML, like Gecko) Chrome/100.0.4896.127 Safari/537.36" etag="SlM-KvPbFVJfGyF_qlAw" version="17.4.5" type="github">
  <diagram name="Page-1" id="b520641d-4fe3-3701-9064-5fc419738815">
    <mxGraphModel dx="3620" dy="1275" grid="1" gridSize="10" guides="1" tooltips="1" connect="1" arrows="1" fold="1" page="1" pageScale="1" pageWidth="1100" pageHeight="850" background="none" math="0" shadow="0">
      <root>
        <mxCell id="0" />
        <mxCell id="1" parent="0" />
        <mxCell id="21ea969265ad0168-6" value="Idle" style="swimlane;html=1;fontStyle=0;childLayout=stackLayout;horizontal=1;startSize=26;fillColor=#e0e0e0;horizontalStack=0;resizeParent=1;resizeLast=0;collapsible=1;marginBottom=0;swimlaneFillColor=#ffffff;align=center;rounded=1;shadow=0;comic=0;labelBackgroundColor=none;strokeWidth=1;fontFamily=Verdana;fontSize=12" parent="1" vertex="1">
          <mxGeometry x="-440" width="570" height="220" as="geometry" />
        </mxCell>
        <mxCell id="21ea969265ad0168-7" value="&lt;div&gt;1) Waits for user input ~ Is the io_write Signal Enabled?&lt;/div&gt;&lt;div&gt;2) Checks to see which Chip Select Signal is enabled?&amp;nbsp;&lt;/div&gt;&lt;div&gt;&lt;span&gt;	&lt;/span&gt;&lt;span style=&quot;white-space: pre&quot;&gt;	&lt;/span&gt;a) cs_data = &#39;1&#39;&lt;/div&gt;&lt;div&gt;&lt;span&gt;	&lt;/span&gt;&lt;span&gt;	&lt;/span&gt;&lt;span style=&quot;white-space: pre&quot;&gt;	&lt;/span&gt;&lt;span style=&quot;white-space: pre&quot;&gt;	&lt;/span&gt;-- SCOMP is writing to the RAM using OUT PXL_D&lt;/div&gt;&lt;div&gt;&lt;span&gt;	&lt;/span&gt;&lt;span style=&quot;white-space: pre&quot;&gt;	&lt;/span&gt;b) cs_all = &#39;1&#39;&lt;/div&gt;&lt;div&gt;&lt;span&gt;	&lt;/span&gt;&lt;span&gt;	&lt;/span&gt;&lt;span style=&quot;white-space: pre&quot;&gt;	&lt;/span&gt;&lt;span style=&quot;white-space: pre&quot;&gt;	&lt;/span&gt;-- SCOMP is writing to the RAM using OUT PXL_ALL&lt;/div&gt;&lt;div&gt;&lt;span&gt;	&lt;/span&gt;&lt;span style=&quot;white-space: pre&quot;&gt;	&lt;/span&gt;c) cs_sleep = &#39;1&#39;&lt;/div&gt;&lt;div&gt;&lt;span&gt;	&lt;/span&gt;&lt;span&gt;	&lt;/span&gt;&lt;span style=&quot;white-space: pre&quot;&gt;	&lt;/span&gt;&lt;span style=&quot;white-space: pre&quot;&gt;	&lt;/span&gt;-- SCOMP is writing to the RAM using OUT SLEEP&lt;/div&gt;&lt;div&gt;3) Takes in Data from SCOMP&lt;/div&gt;&lt;div&gt;4) Enables RAM Write Enable Signal&lt;/div&gt;&lt;div&gt;5) Sets the Writing State and setups the corresponding Internal Signals/Variables for that Write State&lt;/div&gt;&lt;div&gt;&lt;br&gt;&lt;/div&gt;&lt;div&gt;&lt;br&gt;&lt;/div&gt;&lt;div&gt;&lt;br&gt;&lt;/div&gt;" style="text;html=1;strokeColor=none;fillColor=none;spacingLeft=4;spacingRight=4;whiteSpace=wrap;overflow=hidden;rotatable=0;points=[[0,0.5],[1,0.5]];portConstraint=eastwest;" parent="21ea969265ad0168-6" vertex="1">
          <mxGeometry y="26" width="570" height="194" as="geometry" />
        </mxCell>
        <mxCell id="21ea969265ad0168-14" value="Copyall" style="swimlane;html=1;fontStyle=0;childLayout=stackLayout;horizontal=1;startSize=26;fillColor=#e0e0e0;horizontalStack=0;resizeParent=1;resizeLast=0;collapsible=1;marginBottom=0;swimlaneFillColor=#ffffff;align=center;rounded=1;shadow=0;comic=0;labelBackgroundColor=none;strokeWidth=1;fontFamily=Verdana;fontSize=12" parent="1" vertex="1">
          <mxGeometry x="-610" y="315" width="260" height="90" as="geometry" />
        </mxCell>
        <mxCell id="21ea969265ad0168-16" value="Copies the inputted value from SCOMP to all the available 256 RAM addresses" style="text;html=1;strokeColor=none;fillColor=none;spacingLeft=4;spacingRight=4;whiteSpace=wrap;overflow=hidden;rotatable=0;points=[[0,0.5],[1,0.5]];portConstraint=eastwest;" parent="21ea969265ad0168-14" vertex="1">
          <mxGeometry y="26" width="260" height="64" as="geometry" />
        </mxCell>
        <mxCell id="wH8cYZUhABfqPCQ885Xl-4" style="edgeStyle=orthogonalEdgeStyle;rounded=0;orthogonalLoop=1;jettySize=auto;html=1;entryX=0;entryY=0.5;entryDx=0;entryDy=0;" edge="1" parent="1" source="21ea969265ad0168-18" target="21ea969265ad0168-7">
          <mxGeometry relative="1" as="geometry">
            <mxPoint x="-40" y="220" as="targetPoint" />
            <Array as="points">
              <mxPoint x="-650" y="580" />
              <mxPoint x="-650" y="123" />
            </Array>
          </mxGeometry>
        </mxCell>
        <mxCell id="21ea969265ad0168-18" value="Storing" style="swimlane;html=1;fontStyle=0;childLayout=stackLayout;horizontal=1;startSize=26;fillColor=#e0e0e0;horizontalStack=0;resizeParent=1;resizeLast=0;collapsible=1;marginBottom=0;swimlaneFillColor=#ffffff;align=center;rounded=1;shadow=0;comic=0;labelBackgroundColor=none;strokeWidth=1;fontFamily=Verdana;fontSize=12" parent="1" vertex="1">
          <mxGeometry x="-595" y="480" width="230" height="150" as="geometry" />
        </mxCell>
        <mxCell id="21ea969265ad0168-19" value="&lt;div&gt;Lowers RAM Write Enable Line (ram_we).&amp;nbsp; The RAM will be&amp;nbsp;&lt;span&gt;storing data on this clock edge, so ram_we can go low at the&amp;nbsp;&lt;/span&gt;&lt;span&gt;same time.&lt;/span&gt;&lt;/div&gt;" style="text;html=1;strokeColor=none;fillColor=none;spacingLeft=4;spacingRight=4;whiteSpace=wrap;overflow=hidden;rotatable=0;points=[[0,0.5],[1,0.5]];portConstraint=eastwest;" parent="21ea969265ad0168-18" vertex="1">
          <mxGeometry y="26" width="230" height="124" as="geometry" />
        </mxCell>
        <mxCell id="21ea969265ad0168-35" style="edgeStyle=orthogonalEdgeStyle;html=1;labelBackgroundColor=none;startFill=0;startSize=8;endFill=1;endSize=8;fontFamily=Verdana;fontSize=12;" parent="1" source="21ea969265ad0168-14" edge="1">
          <mxGeometry relative="1" as="geometry">
            <Array as="points">
              <mxPoint x="-490" y="460" />
              <mxPoint x="-490" y="460" />
            </Array>
            <mxPoint x="-490" y="479" as="targetPoint" />
          </mxGeometry>
        </mxCell>
        <mxCell id="21ea969265ad0168-36" style="edgeStyle=orthogonalEdgeStyle;html=1;labelBackgroundColor=none;startFill=0;startSize=8;endFill=1;endSize=8;fontFamily=Verdana;fontSize=12;" parent="1" source="21ea969265ad0168-6" target="21ea969265ad0168-14" edge="1">
          <mxGeometry relative="1" as="geometry">
            <Array as="points">
              <mxPoint x="-250" y="270" />
              <mxPoint x="-430" y="270" />
            </Array>
          </mxGeometry>
        </mxCell>
        <mxCell id="21ea969265ad0168-41" style="edgeStyle=orthogonalEdgeStyle;html=1;exitX=0.472;exitY=1.003;labelBackgroundColor=none;startFill=0;startSize=8;endFill=1;endSize=8;fontFamily=Verdana;fontSize=12;exitDx=0;exitDy=0;exitPerimeter=0;" parent="1" source="21ea969265ad0168-7" edge="1">
          <mxGeometry relative="1" as="geometry">
            <mxPoint x="320" y="165" as="sourcePoint" />
            <mxPoint x="-360" y="498" as="targetPoint" />
            <Array as="points">
              <mxPoint x="-171" y="290" />
              <mxPoint x="-170" y="290" />
              <mxPoint x="-170" y="498" />
            </Array>
          </mxGeometry>
        </mxCell>
        <mxCell id="wH8cYZUhABfqPCQ885Xl-1" value="&lt;div style=&quot;text-align: left&quot;&gt;&lt;b&gt;cs_all = &#39;1&#39;&lt;/b&gt;&lt;/div&gt;&lt;div&gt;&lt;br&gt;&lt;/div&gt;" style="text;html=1;strokeColor=none;fillColor=none;align=center;verticalAlign=middle;whiteSpace=wrap;rounded=0;" vertex="1" parent="1">
          <mxGeometry x="-400" y="250" width="100" height="30" as="geometry" />
        </mxCell>
        <mxCell id="wH8cYZUhABfqPCQ885Xl-2" value="&lt;div style=&quot;text-align: left&quot;&gt;&lt;b&gt;cs_data = &#39;1&#39;&lt;/b&gt;&lt;/div&gt;&lt;div&gt;&lt;br&gt;&lt;/div&gt;" style="text;html=1;strokeColor=none;fillColor=none;align=center;verticalAlign=middle;whiteSpace=wrap;rounded=0;" vertex="1" parent="1">
          <mxGeometry x="-160" y="370" width="100" height="30" as="geometry" />
        </mxCell>
        <mxCell id="wH8cYZUhABfqPCQ885Xl-5" value="Idle" style="swimlane;html=1;fontStyle=0;childLayout=stackLayout;horizontal=1;startSize=26;fillColor=#e0e0e0;horizontalStack=0;resizeParent=1;resizeLast=0;collapsible=1;marginBottom=0;swimlaneFillColor=#ffffff;align=center;rounded=1;shadow=0;comic=0;labelBackgroundColor=none;strokeWidth=1;fontFamily=Verdana;fontSize=12" vertex="1" parent="1">
          <mxGeometry x="1000" y="240" width="570" height="220" as="geometry" />
        </mxCell>
        <mxCell id="wH8cYZUhABfqPCQ885Xl-6" value="&lt;div&gt;1) Waits for user input ~ Is the io_write Signal Enabled?&lt;/div&gt;&lt;div&gt;2) Checks to see which Chip Select Signal is enabled?&amp;nbsp;&lt;/div&gt;&lt;div&gt;&lt;span&gt;	&lt;/span&gt;&lt;span style=&quot;white-space: pre&quot;&gt;	&lt;/span&gt;a) cs_data = &#39;1&#39;&lt;/div&gt;&lt;div&gt;&lt;span&gt;	&lt;/span&gt;&lt;span&gt;	&lt;/span&gt;&lt;span style=&quot;white-space: pre&quot;&gt;	&lt;/span&gt;&lt;span style=&quot;white-space: pre&quot;&gt;	&lt;/span&gt;-- SCOMP is writing to the RAM using OUT PXL_D&lt;/div&gt;&lt;div&gt;&lt;span&gt;	&lt;/span&gt;&lt;span style=&quot;white-space: pre&quot;&gt;	&lt;/span&gt;b) cs_all = &#39;1&#39;&lt;/div&gt;&lt;div&gt;&lt;span&gt;	&lt;/span&gt;&lt;span&gt;	&lt;/span&gt;&lt;span style=&quot;white-space: pre&quot;&gt;	&lt;/span&gt;&lt;span style=&quot;white-space: pre&quot;&gt;	&lt;/span&gt;-- SCOMP is writing to the RAM using OUT PXL_ALL&lt;/div&gt;&lt;div&gt;&lt;span&gt;	&lt;/span&gt;&lt;span style=&quot;white-space: pre&quot;&gt;	&lt;/span&gt;c) cs_sleep = &#39;1&#39;&lt;/div&gt;&lt;div&gt;&lt;span&gt;	&lt;/span&gt;&lt;span&gt;	&lt;/span&gt;&lt;span style=&quot;white-space: pre&quot;&gt;	&lt;/span&gt;&lt;span style=&quot;white-space: pre&quot;&gt;	&lt;/span&gt;-- SCOMP is writing to the RAM using OUT SLEEP&lt;/div&gt;&lt;div&gt;3) Takes in Data from SCOMP&lt;/div&gt;&lt;div&gt;4) Enables RAM Write Enable Signal&lt;/div&gt;&lt;div&gt;5) Sets the Writing State and setups the corresponding Internal Signals/Variables for that Write State&lt;/div&gt;&lt;div&gt;&lt;br&gt;&lt;/div&gt;&lt;div&gt;&lt;br&gt;&lt;/div&gt;&lt;div&gt;&lt;br&gt;&lt;/div&gt;" style="text;html=1;strokeColor=none;fillColor=none;spacingLeft=4;spacingRight=4;whiteSpace=wrap;overflow=hidden;rotatable=0;points=[[0,0.5],[1,0.5]];portConstraint=eastwest;" vertex="1" parent="wH8cYZUhABfqPCQ885Xl-5">
          <mxGeometry y="26" width="570" height="194" as="geometry" />
        </mxCell>
        <mxCell id="wH8cYZUhABfqPCQ885Xl-7" value="Copyall" style="swimlane;html=1;fontStyle=0;childLayout=stackLayout;horizontal=1;startSize=26;fillColor=#e0e0e0;horizontalStack=0;resizeParent=1;resizeLast=0;collapsible=1;marginBottom=0;swimlaneFillColor=#ffffff;align=center;rounded=1;shadow=0;comic=0;labelBackgroundColor=none;strokeWidth=1;fontFamily=Verdana;fontSize=12" vertex="1" parent="1">
          <mxGeometry x="830" y="555" width="260" height="90" as="geometry" />
        </mxCell>
        <mxCell id="wH8cYZUhABfqPCQ885Xl-8" value="Copies the inputted value from SCOMP to all the available 256 RAM addresses" style="text;html=1;strokeColor=none;fillColor=none;spacingLeft=4;spacingRight=4;whiteSpace=wrap;overflow=hidden;rotatable=0;points=[[0,0.5],[1,0.5]];portConstraint=eastwest;" vertex="1" parent="wH8cYZUhABfqPCQ885Xl-7">
          <mxGeometry y="26" width="260" height="64" as="geometry" />
        </mxCell>
        <mxCell id="wH8cYZUhABfqPCQ885Xl-9" style="edgeStyle=orthogonalEdgeStyle;rounded=0;orthogonalLoop=1;jettySize=auto;html=1;entryX=0;entryY=0.5;entryDx=0;entryDy=0;" edge="1" parent="1" source="wH8cYZUhABfqPCQ885Xl-10" target="wH8cYZUhABfqPCQ885Xl-6">
          <mxGeometry relative="1" as="geometry">
            <mxPoint x="1400" y="460" as="targetPoint" />
            <Array as="points">
              <mxPoint x="720" y="820" />
              <mxPoint x="720" y="363" />
            </Array>
          </mxGeometry>
        </mxCell>
        <mxCell id="wH8cYZUhABfqPCQ885Xl-10" value="Storing" style="swimlane;html=1;fontStyle=0;childLayout=stackLayout;horizontal=1;startSize=26;fillColor=#e0e0e0;horizontalStack=0;resizeParent=1;resizeLast=0;collapsible=1;marginBottom=0;swimlaneFillColor=#ffffff;align=center;rounded=1;shadow=0;comic=0;labelBackgroundColor=none;strokeWidth=1;fontFamily=Verdana;fontSize=12" vertex="1" parent="1">
          <mxGeometry x="845" y="720" width="230" height="150" as="geometry" />
        </mxCell>
        <mxCell id="wH8cYZUhABfqPCQ885Xl-11" value="&lt;div&gt;Lowers RAM Write Enable Line (ram_we).&amp;nbsp; The RAM will be&amp;nbsp;&lt;span&gt;storing data on this clock edge, so ram_we can go low at the&amp;nbsp;&lt;/span&gt;&lt;span&gt;same time.&lt;/span&gt;&lt;/div&gt;" style="text;html=1;strokeColor=none;fillColor=none;spacingLeft=4;spacingRight=4;whiteSpace=wrap;overflow=hidden;rotatable=0;points=[[0,0.5],[1,0.5]];portConstraint=eastwest;" vertex="1" parent="wH8cYZUhABfqPCQ885Xl-10">
          <mxGeometry y="26" width="230" height="124" as="geometry" />
        </mxCell>
        <mxCell id="wH8cYZUhABfqPCQ885Xl-12" style="edgeStyle=orthogonalEdgeStyle;html=1;labelBackgroundColor=none;startFill=0;startSize=8;endFill=1;endSize=8;fontFamily=Verdana;fontSize=12;" edge="1" parent="1" source="wH8cYZUhABfqPCQ885Xl-7">
          <mxGeometry relative="1" as="geometry">
            <Array as="points">
              <mxPoint x="950" y="700" />
              <mxPoint x="950" y="700" />
            </Array>
            <mxPoint x="950" y="719" as="targetPoint" />
          </mxGeometry>
        </mxCell>
        <mxCell id="wH8cYZUhABfqPCQ885Xl-13" style="edgeStyle=orthogonalEdgeStyle;html=1;labelBackgroundColor=none;startFill=0;startSize=8;endFill=1;endSize=8;fontFamily=Verdana;fontSize=12;" edge="1" parent="1" source="wH8cYZUhABfqPCQ885Xl-5" target="wH8cYZUhABfqPCQ885Xl-7">
          <mxGeometry relative="1" as="geometry">
            <Array as="points">
              <mxPoint x="1190" y="510" />
              <mxPoint x="1010" y="510" />
            </Array>
          </mxGeometry>
        </mxCell>
        <mxCell id="wH8cYZUhABfqPCQ885Xl-14" style="edgeStyle=orthogonalEdgeStyle;html=1;exitX=0.472;exitY=1.003;labelBackgroundColor=none;startFill=0;startSize=8;endFill=1;endSize=8;fontFamily=Verdana;fontSize=12;exitDx=0;exitDy=0;exitPerimeter=0;" edge="1" parent="1" source="wH8cYZUhABfqPCQ885Xl-6">
          <mxGeometry relative="1" as="geometry">
            <mxPoint x="1760" y="405" as="sourcePoint" />
            <mxPoint x="1080" y="738" as="targetPoint" />
            <Array as="points">
              <mxPoint x="1269" y="530" />
              <mxPoint x="1270" y="530" />
              <mxPoint x="1270" y="738" />
            </Array>
          </mxGeometry>
        </mxCell>
        <mxCell id="wH8cYZUhABfqPCQ885Xl-15" value="&lt;div style=&quot;text-align: left&quot;&gt;&lt;b&gt;cs_all = &#39;1&#39;&lt;/b&gt;&lt;/div&gt;&lt;div&gt;&lt;br&gt;&lt;/div&gt;" style="text;html=1;strokeColor=none;fillColor=none;align=center;verticalAlign=middle;whiteSpace=wrap;rounded=0;" vertex="1" parent="1">
          <mxGeometry x="1040" y="490" width="100" height="30" as="geometry" />
        </mxCell>
        <mxCell id="wH8cYZUhABfqPCQ885Xl-16" value="&lt;div style=&quot;text-align: left&quot;&gt;&lt;b&gt;cs_sleep = &#39;1&#39;&lt;/b&gt;&lt;/div&gt;&lt;div&gt;&lt;br&gt;&lt;/div&gt;" style="text;html=1;strokeColor=none;fillColor=none;align=center;verticalAlign=middle;whiteSpace=wrap;rounded=0;" vertex="1" parent="1">
          <mxGeometry x="1280" y="610" width="100" height="30" as="geometry" />
        </mxCell>
        <mxCell id="wH8cYZUhABfqPCQ885Xl-17" value="Sleep_setup" style="swimlane;html=1;fontStyle=0;childLayout=stackLayout;horizontal=1;startSize=26;fillColor=#e0e0e0;horizontalStack=0;resizeParent=1;resizeLast=0;collapsible=1;marginBottom=0;swimlaneFillColor=#ffffff;align=center;rounded=1;shadow=0;comic=0;labelBackgroundColor=none;strokeWidth=1;fontFamily=Verdana;fontSize=12" vertex="1" parent="1">
          <mxGeometry x="-10" y="330" width="260" height="90" as="geometry" />
        </mxCell>
        <mxCell id="wH8cYZUhABfqPCQ885Xl-18" value="Uses internal signals to right shift the values of that color and saves that value into a buffer signal (effectively reducing the Brighteness of the Pixel Color)" style="text;html=1;strokeColor=none;fillColor=none;spacingLeft=4;spacingRight=4;whiteSpace=wrap;overflow=hidden;rotatable=0;points=[[0,0.5],[1,0.5]];portConstraint=eastwest;" vertex="1" parent="wH8cYZUhABfqPCQ885Xl-17">
          <mxGeometry y="26" width="260" height="64" as="geometry" />
        </mxCell>
        <mxCell id="wH8cYZUhABfqPCQ885Xl-19" value="sleep_latch" style="swimlane;html=1;fontStyle=0;childLayout=stackLayout;horizontal=1;startSize=26;fillColor=#e0e0e0;horizontalStack=0;resizeParent=1;resizeLast=0;collapsible=1;marginBottom=0;swimlaneFillColor=#ffffff;align=center;rounded=1;shadow=0;comic=0;labelBackgroundColor=none;strokeWidth=1;fontFamily=Verdana;fontSize=12" vertex="1" parent="1">
          <mxGeometry x="5" y="490" width="230" height="100" as="geometry" />
        </mxCell>
        <mxCell id="wH8cYZUhABfqPCQ885Xl-26" value="&lt;span&gt;1) Enables RAM Write Enable Signal&lt;br&gt;2) Writes the new pixel color value to a RAM buffer Signal&lt;br&gt;&lt;/span&gt;" style="text;html=1;strokeColor=none;fillColor=none;align=left;verticalAlign=middle;whiteSpace=wrap;rounded=0;" vertex="1" parent="wH8cYZUhABfqPCQ885Xl-19">
          <mxGeometry y="26" width="230" height="74" as="geometry" />
        </mxCell>
        <mxCell id="wH8cYZUhABfqPCQ885Xl-21" style="edgeStyle=orthogonalEdgeStyle;html=1;labelBackgroundColor=none;startFill=0;startSize=8;endFill=1;endSize=8;fontFamily=Verdana;fontSize=12;" edge="1" parent="1" source="wH8cYZUhABfqPCQ885Xl-17">
          <mxGeometry relative="1" as="geometry">
            <Array as="points">
              <mxPoint x="110" y="470" />
              <mxPoint x="110" y="470" />
            </Array>
            <mxPoint x="110" y="489" as="targetPoint" />
          </mxGeometry>
        </mxCell>
        <mxCell id="wH8cYZUhABfqPCQ885Xl-22" style="edgeStyle=orthogonalEdgeStyle;html=1;labelBackgroundColor=none;startFill=0;startSize=8;endFill=1;endSize=8;fontFamily=Verdana;fontSize=12;exitX=0.706;exitY=1.009;exitDx=0;exitDy=0;exitPerimeter=0;" edge="1" parent="1" target="wH8cYZUhABfqPCQ885Xl-17" source="21ea969265ad0168-7">
          <mxGeometry relative="1" as="geometry">
            <mxPoint x="350" y="230" as="sourcePoint" />
            <Array as="points">
              <mxPoint x="-38" y="280" />
              <mxPoint x="120" y="280" />
            </Array>
          </mxGeometry>
        </mxCell>
        <mxCell id="wH8cYZUhABfqPCQ885Xl-23" style="edgeStyle=orthogonalEdgeStyle;html=1;exitX=0.472;exitY=1.003;labelBackgroundColor=none;startFill=0;startSize=8;endFill=1;endSize=8;fontFamily=Verdana;fontSize=12;exitDx=0;exitDy=0;exitPerimeter=0;entryX=1.011;entryY=0.413;entryDx=0;entryDy=0;entryPerimeter=0;" edge="1" parent="1" target="21ea969265ad0168-7">
          <mxGeometry relative="1" as="geometry">
            <mxPoint x="119.03999999999996" y="970.0019999999998" as="sourcePoint" />
            <mxPoint x="410" y="100" as="targetPoint" />
            <Array as="points">
              <mxPoint x="119" y="1039" />
              <mxPoint x="320" y="1039" />
              <mxPoint x="320" y="106" />
            </Array>
          </mxGeometry>
        </mxCell>
        <mxCell id="wH8cYZUhABfqPCQ885Xl-24" value="&lt;div style=&quot;text-align: left&quot;&gt;&lt;b&gt;cs_sleep = &#39;1&#39;&lt;/b&gt;&lt;/div&gt;&lt;div&gt;&lt;br&gt;&lt;/div&gt;" style="text;html=1;strokeColor=none;fillColor=none;align=center;verticalAlign=middle;whiteSpace=wrap;rounded=0;" vertex="1" parent="1">
          <mxGeometry x="-10" y="250" width="100" height="30" as="geometry" />
        </mxCell>
        <mxCell id="wH8cYZUhABfqPCQ885Xl-25" value="&lt;div style=&quot;text-align: left&quot;&gt;&lt;b&gt;cs_sleep = &#39;1&#39;&lt;/b&gt;&lt;/div&gt;&lt;div&gt;&lt;br&gt;&lt;/div&gt;" style="text;html=1;strokeColor=none;fillColor=none;align=center;verticalAlign=middle;whiteSpace=wrap;rounded=0;" vertex="1" parent="1">
          <mxGeometry x="720" y="160" width="100" height="30" as="geometry" />
        </mxCell>
        <mxCell id="wH8cYZUhABfqPCQ885Xl-27" value="sleep_update" style="swimlane;html=1;fontStyle=0;childLayout=stackLayout;horizontal=1;startSize=26;fillColor=#e0e0e0;horizontalStack=0;resizeParent=1;resizeLast=0;collapsible=1;marginBottom=0;swimlaneFillColor=#ffffff;align=center;rounded=1;shadow=0;comic=0;labelBackgroundColor=none;strokeWidth=1;fontFamily=Verdana;fontSize=12" vertex="1" parent="1">
          <mxGeometry x="5" y="660" width="230" height="100" as="geometry" />
        </mxCell>
        <mxCell id="wH8cYZUhABfqPCQ885Xl-28" value="&lt;span&gt;1) Updates all the pixel color values to all 256 RAM addresses&lt;br&gt;&lt;/span&gt;" style="text;html=1;strokeColor=none;fillColor=none;align=left;verticalAlign=middle;whiteSpace=wrap;rounded=0;" vertex="1" parent="wH8cYZUhABfqPCQ885Xl-27">
          <mxGeometry y="26" width="230" height="74" as="geometry" />
        </mxCell>
        <mxCell id="wH8cYZUhABfqPCQ885Xl-29" style="edgeStyle=orthogonalEdgeStyle;rounded=0;orthogonalLoop=1;jettySize=auto;html=1;exitX=0.5;exitY=1;exitDx=0;exitDy=0;entryX=0.5;entryY=0;entryDx=0;entryDy=0;" edge="1" parent="1" source="wH8cYZUhABfqPCQ885Xl-26" target="wH8cYZUhABfqPCQ885Xl-27">
          <mxGeometry relative="1" as="geometry" />
        </mxCell>
        <mxCell id="wH8cYZUhABfqPCQ885Xl-30" value="sleep_toring" style="swimlane;html=1;fontStyle=0;childLayout=stackLayout;horizontal=1;startSize=26;fillColor=#e0e0e0;horizontalStack=0;resizeParent=1;resizeLast=0;collapsible=1;marginBottom=0;swimlaneFillColor=#ffffff;align=center;rounded=1;shadow=0;comic=0;labelBackgroundColor=none;strokeWidth=1;fontFamily=Verdana;fontSize=12" vertex="1" parent="1">
          <mxGeometry x="5" y="820" width="230" height="150" as="geometry" />
        </mxCell>
        <mxCell id="wH8cYZUhABfqPCQ885Xl-31" value="&lt;div&gt;Lowers RAM Write Enable Line (ram_we), and uses internal signals to regulate the time between when data is ouput to to the RAM address (prevents abrupt decrease in the Pixel colors)&lt;/div&gt;" style="text;html=1;strokeColor=none;fillColor=none;spacingLeft=4;spacingRight=4;whiteSpace=wrap;overflow=hidden;rotatable=0;points=[[0,0.5],[1,0.5]];portConstraint=eastwest;" vertex="1" parent="wH8cYZUhABfqPCQ885Xl-30">
          <mxGeometry y="26" width="230" height="124" as="geometry" />
        </mxCell>
        <mxCell id="wH8cYZUhABfqPCQ885Xl-32" style="edgeStyle=orthogonalEdgeStyle;rounded=0;orthogonalLoop=1;jettySize=auto;html=1;exitX=0.5;exitY=1;exitDx=0;exitDy=0;entryX=0.5;entryY=0;entryDx=0;entryDy=0;" edge="1" parent="1" source="wH8cYZUhABfqPCQ885Xl-28" target="wH8cYZUhABfqPCQ885Xl-30">
          <mxGeometry relative="1" as="geometry" />
        </mxCell>
      </root>
    </mxGraphModel>
  </diagram>
</mxfile>
